<svg width="122" height="44" fill="none" xmlns="http://www.w3.org/2000/svg"><path d="M24.438 28.126c-.564 0-1.062-.066-1.494-.198-.42-.144-.75-.318-.99-.522-.228-.204-.342-.396-.342-.576 0-.108.036-.222.108-.342.084-.12.186-.18.306-.18.132 0 .276.072.432.216.156.132.384.27.684.414.3.132.72.198 1.26.198.684 0 1.164-.126 1.44-.378.276-.264.414-.564.414-.9 0-.396-.108-.702-.324-.918-.216-.228-.492-.402-.828-.522-.336-.132-.696-.246-1.08-.342-.372-.108-.732-.24-1.08-.396-.336-.168-.612-.396-.828-.684-.204-.288-.306-.678-.306-1.17 0-.384.09-.762.27-1.134.192-.372.498-.684.918-.936.42-.252.972-.378 1.656-.378.396 0 .774.042 1.134.126.372.084.678.198.918.342.24.132.36.27.36.414 0 .096-.048.222-.144.378-.084.156-.198.234-.342.234-.096 0-.228-.042-.396-.126-.156-.084-.36-.168-.612-.252-.252-.084-.552-.126-.9-.126-.444 0-.798.078-1.062.234-.264.156-.456.342-.576.558-.108.216-.162.42-.162.612 0 .348.108.618.324.81.216.18.492.324.828.432.348.108.708.216 1.08.324.384.096.744.234 1.08.414.336.18.612.432.828.756.216.324.324.756.324 1.296 0 .72-.252 1.29-.756 1.71-.504.408-1.218.612-2.142.612zM29.6529 28c-.156 0-.294-.048-.414-.144-.108-.096-.162-.198-.162-.306v-7.632c0-.12.054-.222.162-.306.12-.084.258-.126.414-.126.168 0 .306.042.414.126.12.084.18.186.18.306v7.632c0 .108-.06.21-.18.306-.108.096-.246.144-.414.144zm0-11.034c-.216 0-.402-.072-.558-.216-.156-.156-.234-.336-.234-.54 0-.204.078-.378.234-.522.156-.144.342-.216.558-.216.216 0 .402.072.558.216.156.144.234.318.234.522 0 .204-.078.384-.234.54-.156.144-.342.216-.558.216zM35.3131 28c-.924 0-1.632-.21-2.124-.63-.492-.42-.738-1.092-.738-2.016v-9.486c0-.12.06-.222.18-.306.132-.084.264-.126.396-.126.156 0 .294.042.414.126.12.084.18.186.18.306v3.618h2.34c.12 0 .216.054.288.162.072.096.108.204.108.324 0 .132-.036.246-.108.342-.072.096-.168.144-.288.144h-2.34v4.896c0 .588.126 1.002.378 1.242.252.228.69.342 1.314.342h.504c.156 0 .282.054.378.162.096.108.144.228.144.36 0 .144-.048.27-.144.378-.096.108-.222.162-.378.162h-.504zm5.8708.126c-.756 0-1.428-.138-2.016-.414-.576-.288-1.032-.69-1.368-1.206-.324-.516-.486-1.116-.486-1.8V22.69c0-.6.156-1.146.468-1.638.312-.504.726-.906 1.242-1.206.528-.312 1.104-.468 1.728-.468.6 0 1.152.144 1.656.432.516.276.93.66 1.242 1.152.312.492.468 1.056.468 1.692 0 .468-.078.804-.234 1.008-.156.192-.354.312-.594.36-.228.048-.474.072-.738.072h-4.068v.666c0 .72.258 1.296.774 1.728.516.42 1.17.63 1.962.63.48 0 .846-.06 1.098-.18.264-.12.474-.24.63-.36.156-.12.3-.18.432-.18.144 0 .264.066.36.198.096.12.144.234.144.342 0 .144-.114.312-.342.504-.216.18-.528.342-.936.486-.396.132-.87.198-1.422.198zm-2.7-4.896h3.6c.36 0 .6-.036.72-.108.12-.084.18-.252.18-.504 0-.384-.096-.744-.288-1.08-.192-.348-.456-.63-.792-.846-.336-.228-.726-.342-1.17-.342-.42 0-.798.102-1.134.306-.336.192-.606.456-.81.792-.204.336-.306.702-.306 1.098v.684zm10.5841 4.896c-.792 0-1.446-.15-1.962-.45-.516-.3-.9-.702-1.152-1.206-.252-.516-.378-1.104-.378-1.764V22.78c0-.636.12-1.212.36-1.728.252-.516.636-.924 1.152-1.224.516-.3 1.176-.45 1.98-.45.504 0 .942.066 1.314.198.384.12.678.276.882.468.216.18.324.348.324.504 0 .12-.054.246-.162.378-.096.132-.21.198-.342.198-.12 0-.246-.054-.378-.162-.132-.12-.324-.234-.576-.342-.24-.108-.576-.162-1.008-.162-.78 0-1.374.21-1.782.63-.396.408-.594.972-.594 1.692v1.926c0 .732.198 1.308.594 1.728.396.408.996.612 1.8.612.456 0 .81-.054 1.062-.162.252-.12.444-.234.576-.342.144-.108.276-.162.396-.162.156 0 .282.06.378.18.096.12.144.246.144.378 0 .156-.108.33-.324.522-.216.18-.522.336-.918.468s-.858.198-1.386.198zM53.876 28c-.168 0-.306-.048-.414-.144-.108-.096-.162-.198-.162-.306V14.698c0-.12.054-.222.162-.306.108-.084.246-.126.414-.126.168 0 .306.042.414.126.12.084.18.186.18.306v6.048c.192-.348.486-.66.882-.936.396-.288.894-.432 1.494-.432.576 0 1.104.156 1.584.468.492.3.882.708 1.17 1.224.288.504.432 1.062.432 1.674v4.806c0 .144-.06.258-.18.342-.12.072-.258.108-.414.108-.132 0-.264-.036-.396-.108-.12-.084-.18-.198-.18-.342v-4.806c0-.384-.102-.75-.306-1.098-.204-.348-.474-.63-.81-.846-.336-.228-.708-.342-1.116-.342-.36 0-.708.09-1.044.27-.324.18-.594.444-.81.792-.204.336-.306.744-.306 1.224v4.806c0 .108-.06.21-.18.306-.108.096-.246.144-.414.144zm10.2081.126c-.684 0-1.266-.192-1.746-.576-.468-.396-.702-.996-.702-1.8 0-.66.174-1.164.522-1.512.36-.36.852-.606 1.476-.738.636-.144 1.368-.216 2.196-.216h.918v-.432c0-.384-.072-.762-.216-1.134-.132-.384-.354-.696-.666-.936-.312-.252-.726-.378-1.242-.378-.396 0-.72.048-.972.144-.252.084-.45.168-.594.252-.144.084-.264.126-.36.126-.156 0-.276-.072-.36-.216-.072-.144-.108-.282-.108-.414 0-.156.12-.3.36-.432.252-.144.564-.258.936-.342.372-.096.75-.144 1.134-.144.804 0 1.44.168 1.908.504.48.324.822.75 1.026 1.278.216.528.324 1.092.324 1.692v4.698c0 .12-.054.228-.162.324-.108.084-.246.126-.414.126-.156 0-.288-.042-.396-.126-.096-.096-.144-.204-.144-.324v-.81c-.312.36-.696.684-1.152.972-.444.276-.966.414-1.566.414zm.288-.972c.384 0 .756-.102 1.116-.306.372-.204.672-.456.9-.756.24-.3.36-.582.36-.846v-1.152h-.756c-.552 0-1.074.036-1.566.108-.48.06-.87.204-1.17.432-.3.216-.45.552-.45 1.008 0 .516.15.9.45 1.152.3.24.672.36 1.116.36zm6.2906.846c-.168 0-.306-.048-.414-.144-.108-.096-.162-.198-.162-.306v-7.632c0-.12.054-.222.162-.306.108-.084.246-.126.414-.126.156 0 .288.042.396.126.108.084.162.186.162.306v.828c.192-.348.492-.66.9-.936.408-.288.912-.432 1.512-.432.576 0 1.104.156 1.584.468.492.3.882.708 1.17 1.224.288.504.432 1.062.432 1.674v4.806c0 .144-.06.258-.18.342-.12.072-.258.108-.414.108-.132 0-.264-.036-.396-.108-.12-.084-.18-.198-.18-.342v-4.806c0-.384-.102-.75-.306-1.098-.192-.348-.462-.63-.81-.846-.336-.228-.708-.342-1.116-.342-.36 0-.708.09-1.044.27-.324.18-.594.444-.81.792-.204.336-.306.744-.306 1.224v4.806c0 .108-.06.21-.18.306-.108.096-.246.144-.414.144zm11.3425 4.176c-.708 0-1.338-.096-1.89-.288-.54-.192-.972-.468-1.296-.828-.312-.36-.468-.786-.468-1.278 0-.516.156-.936.468-1.26.312-.312.666-.546 1.062-.702-.288-.096-.528-.234-.72-.414-.18-.192-.27-.468-.27-.828 0-.336.078-.6.234-.792.168-.192.39-.36.666-.504-.66-.552-.99-1.308-.99-2.268v-.684c0-.864.282-1.572.846-2.124.564-.552 1.314-.828 2.25-.828.42 0 .81.066 1.17.198.36.132.672.318.936.558.18-.36.384-.636.612-.828.228-.204.45-.306.666-.306.18 0 .312.054.396.162.096.096.144.198.144.306 0 .108-.036.198-.108.27-.06.06-.126.102-.198.126-.144.024-.312.09-.504.198-.18.108-.348.3-.504.576.168.228.294.492.378.792.084.288.126.588.126.9v.684c0 .564-.132 1.074-.396 1.53-.264.456-.636.816-1.116 1.08-.468.252-1.008.378-1.62.378-.516 0-.978-.102-1.386-.306-.144.072-.276.162-.396.27-.108.108-.162.252-.162.432 0 .264.132.456.396.576.276.12.624.204 1.044.252.432.048.882.102 1.35.162.48.048.93.144 1.35.288.432.144.78.366 1.044.666.276.3.414.726.414 1.278 0 .84-.336 1.476-1.008 1.908-.66.432-1.5.648-2.52.648zm-.018-.864c.756 0 1.344-.15 1.764-.45.432-.3.648-.702.648-1.206 0-.372-.12-.66-.36-.864-.228-.204-.522-.348-.882-.432-.348-.084-.714-.144-1.098-.18-.372-.036-.696-.072-.972-.108-.42.132-.792.324-1.116.576-.324.252-.486.594-.486 1.026 0 .492.222.888.666 1.188.444.3 1.056.45 1.836.45zm-.072-6.192c.6 0 1.074-.198 1.422-.594.348-.408.522-.912.522-1.512v-.684c0-.588-.174-1.08-.522-1.476-.336-.396-.816-.594-1.44-.594s-1.11.198-1.458.594c-.336.396-.504.888-.504 1.476v.666c0 .6.174 1.104.522 1.512.348.408.834.612 1.458.612zm8.7863 3.006c-.756 0-1.428-.138-2.016-.414-.576-.288-1.032-.69-1.368-1.206-.324-.516-.486-1.116-.486-1.8V22.69c0-.6.156-1.146.468-1.638.312-.504.726-.906 1.242-1.206.528-.312 1.104-.468 1.728-.468.6 0 1.152.144 1.656.432.516.276.93.66 1.242 1.152.312.492.468 1.056.468 1.692 0 .468-.078.804-.234 1.008-.156.192-.354.312-.594.36-.228.048-.474.072-.738.072h-4.068v.666c0 .72.258 1.296.774 1.728.516.42 1.17.63 1.962.63.48 0 .846-.06 1.098-.18.264-.12.474-.24.63-.36.156-.12.3-.18.432-.18.144 0 .264.066.36.198.096.12.144.234.144.342 0 .144-.114.312-.342.504-.216.18-.528.342-.936.486-.396.132-.87.198-1.422.198zm-2.7-4.896h3.6c.36 0 .6-.036.72-.108.12-.084.18-.252.18-.504 0-.384-.096-.744-.288-1.08-.192-.348-.456-.63-.792-.846-.336-.228-.726-.342-1.17-.342-.42 0-.798.102-1.134.306-.336.192-.606.456-.81.792-.204.336-.306.702-.306 1.098v.684zm9.7021 4.896c-.564 0-1.062-.066-1.494-.198-.42-.144-.75-.318-.99-.522-.228-.204-.342-.396-.342-.576 0-.108.036-.222.108-.342.084-.12.186-.18.306-.18.132 0 .276.072.432.216.156.132.384.27.684.414.3.132.72.198 1.26.198.684 0 1.164-.126 1.44-.378.276-.264.414-.564.414-.9 0-.396-.108-.702-.324-.918-.216-.228-.492-.402-.828-.522-.336-.132-.696-.246-1.08-.342-.372-.108-.732-.24-1.08-.396-.336-.168-.612-.396-.828-.684-.204-.288-.306-.678-.306-1.17 0-.384.09-.762.27-1.134.192-.372.498-.684.918-.936.42-.252.972-.378 1.656-.378.396 0 .774.042 1.134.126.372.084.678.198.918.342.2404.132.3604.27.3604.414 0 .096-.048.222-.144.378-.084.156-.1984.234-.3424.234-.096 0-.228-.042-.396-.126-.156-.084-.36-.168-.612-.252-.252-.084-.552-.126-.9-.126-.444 0-.798.078-1.062.234-.264.156-.456.342-.576.558-.108.216-.162.42-.162.612 0 .348.108.618.324.81.216.18.492.324.828.432.348.108.708.216 1.08.324.384.096.744.234 1.08.414.336.18.6124.432.8284.756.216.324.324.756.324 1.296 0 .72-.252 1.29-.7564 1.71-.504.408-1.218.612-2.142.612z" fill="#000"/><path stroke="#000" d="M5.5.5h116v37H5.5z"/><path stroke="#000" d="M.5 6.5h116v37H.5z"/></svg>